<?xml version="1.0" encoding="UTF-8"?>
<svg xmlns="http://www.w3.org/2000/svg" xmlns:xlink="http://www.w3.org/1999/xlink" viewBox="0 0 100 100" width="100px" height="100px">
<g id="surface76783691">
<path style=" stroke:none;fill-rule:nonzero;fill:rgb(100%,100%,100%);fill-opacity:1;" d="M 50 8.332031 C 27.023438 8.332031 8.332031 27.023438 8.332031 50 C 8.332031 72.976562 27.023438 91.667969 50 91.667969 C 72.976562 91.667969 91.667969 72.976562 91.667969 50 C 91.667969 27.023438 72.976562 8.332031 50 8.332031 Z M 50 14.582031 C 69.597656 14.582031 85.417969 30.402344 85.417969 50 C 85.417969 65.96875 74.910156 79.421875 60.417969 83.859375 L 60.417969 73.203125 C 60.417969 69.222656 58.125 65.808594 54.808594 64.109375 C 61.347656 62.859375 66.730469 59.164062 69.261719 54.183594 C 71.792969 49.199219 71.167969 43.546875 67.578125 39 C 68.503906 36.15625 69.535156 31.167969 67.082031 27.242188 C 62.351562 27.242188 59.300781 30.484375 57.84375 32.5 C 55.355469 31.679688 52.691406 31.257812 50 31.25 C 47.308594 31.253906 44.640625 31.671875 42.148438 32.488281 C 40.6875 30.46875 37.636719 27.242188 32.917969 27.242188 C 30.105469 31.746094 31.84375 36.59375 32.777344 38.570312 C 28.941406 43.097656 28.128906 48.84375 30.601562 53.945312 C 33.078125 59.042969 38.519531 62.847656 45.171875 64.125 C 42.449219 65.527344 40.410156 68.070312 39.785156 71.160156 L 37.046875 71.160156 C 34.347656 71.160156 33.296875 70.0625 31.835938 68.207031 C 30.394531 66.355469 28.84375 65.113281 26.980469 64.59375 C 25.976562 64.488281 25.300781 65.253906 26.175781 65.929688 C 29.132812 67.941406 29.335938 71.238281 30.523438 73.394531 C 31.601562 75.335938 33.8125 77.082031 36.3125 77.082031 L 39.582031 77.082031 L 39.582031 83.859375 C 25.089844 79.421875 14.582031 65.96875 14.582031 50 C 14.582031 30.402344 30.402344 14.582031 50 14.582031 Z M 50 14.582031 "/>
</g>
</svg>
