<?xml version="1.0" encoding="UTF-8"?>
<svg xmlns="http://www.w3.org/2000/svg" xmlns:xlink="http://www.w3.org/1999/xlink" viewBox="0 0 30 30" width="30px" height="30px">
<g id="surface76774668">
<path style=" stroke:none;fill-rule:nonzero;fill:rgb(100%,100%,100%);fill-opacity:1;" d="M 15 2.5 C 12.808594 2.5 10.980469 4.136719 10.675781 6.25 L 6.398438 6.25 C 6.34375 6.242188 6.292969 6.238281 6.238281 6.238281 C 6.191406 6.238281 6.144531 6.242188 6.097656 6.25 L 4.0625 6.25 C 3.722656 6.246094 3.410156 6.421875 3.238281 6.714844 C 3.070312 7.007812 3.070312 7.367188 3.238281 7.660156 C 3.410156 7.953125 3.722656 8.128906 4.0625 8.125 L 5.398438 8.125 L 6.972656 24.394531 C 7.140625 26.148438 8.632812 27.5 10.394531 27.5 L 19.605469 27.5 C 21.367188 27.5 22.855469 26.148438 23.027344 24.394531 L 24.601562 8.125 L 25.9375 8.125 C 26.277344 8.128906 26.589844 7.953125 26.761719 7.660156 C 26.929688 7.367188 26.929688 7.007812 26.761719 6.714844 C 26.589844 6.421875 26.277344 6.246094 25.9375 6.25 L 23.902344 6.25 C 23.804688 6.234375 23.703125 6.234375 23.601562 6.25 L 19.324219 6.25 C 19.019531 4.136719 17.191406 2.5 15 2.5 Z M 15 4.375 C 16.175781 4.375 17.136719 5.167969 17.414062 6.25 L 12.585938 6.25 C 12.863281 5.167969 13.824219 4.375 15 4.375 Z M 7.28125 8.125 L 22.71875 8.125 L 21.160156 24.210938 C 21.082031 25.023438 20.417969 25.625 19.605469 25.625 L 10.394531 25.625 C 9.582031 25.625 8.917969 25.019531 8.839844 24.210938 Z M 12.796875 11.238281 C 12.28125 11.246094 11.867188 11.671875 11.875 12.1875 L 11.875 21.5625 C 11.871094 21.902344 12.046875 22.214844 12.339844 22.386719 C 12.632812 22.554688 12.992188 22.554688 13.285156 22.386719 C 13.578125 22.214844 13.753906 21.902344 13.75 21.5625 L 13.75 12.1875 C 13.753906 11.933594 13.65625 11.691406 13.476562 11.511719 C 13.296875 11.332031 13.050781 11.234375 12.796875 11.238281 Z M 17.171875 11.238281 C 16.65625 11.246094 16.242188 11.671875 16.25 12.1875 L 16.25 21.5625 C 16.246094 21.902344 16.421875 22.214844 16.714844 22.386719 C 17.007812 22.554688 17.367188 22.554688 17.660156 22.386719 C 17.953125 22.214844 18.128906 21.902344 18.125 21.5625 L 18.125 12.1875 C 18.128906 11.933594 18.03125 11.691406 17.851562 11.511719 C 17.671875 11.332031 17.425781 11.234375 17.171875 11.238281 Z M 17.171875 11.238281 "/>
</g>
</svg>
